<svg xmlns="http://www.w3.org/2000/svg" xmlns:xlink="http://www.w3.org/1999/xlink" width="130.852" height="130.852" viewBox="0 0 130.852 130.852"><defs><path id="a" d="M0 0h130.852v130.852H0z"/></defs><clipPath id="b"><use xlink:href="#a" overflow="visible"/></clipPath><circle clip-path="url(#b)" fill="none" stroke="#4E58D8" stroke-width="2" stroke-miterlimit="10" cx="65.426" cy="65.426" r="64.426"/><path clip-path="url(#b)" fill="#4E58D8" d="M88.874 96.857c-.004 5.175-4.214 9.38-9.39 9.377l-16.757-.012c-4.95-.003-9-3.86-9.343-8.72h2.01c.34 3.754 3.496 6.707 7.334 6.71l16.754.012c4.067.002 7.374-3.305 7.376-7.368l.016-22.788h2.01l-.015 22.79h.004zm-45.577-3.38l.042-63.674c0-1.48 1.202-2.683 2.684-2.682l16.755.012c1.476 0 2.68 1.203 2.68 2.685l-.043 63.674c0 1.478-1.202 2.678-2.684 2.678l-16.756-.012c-1.476 0-2.68-1.203-2.68-2.68M95.602 60.67l-.004 5.753-3.158 3.154c-.06.063-.112.136-.145.217-.034.08-.053.17-.053.255l-.002 2.683-8.713-.005.002-2.684c0-.086-.017-.175-.052-.256-.034-.08-.085-.158-.145-.217l-3.153-3.157.004-5.753 15.418.01zm-12.06-9.057c0-.554.45-1.005 1.006-1.005.554 0 1.005.452 1.004 1.006l-.005 7.708h-2.01l.005-7.71zm6.703.004c0-.554.452-1.005 1.006-1.005.555 0 1.006.453 1.005 1.006l-.005 7.708h-2.01l.005-7.71zM96.938 60c0-.372-.297-.67-.668-.67l-2.683-.003.005-7.708c0-1.296-1.05-2.348-2.345-2.35-1.296 0-2.35 1.05-2.35 2.346l-.005 7.708h-2.01l.005-7.71c0-1.294-1.05-2.346-2.345-2.347-1.294 0-2.348 1.05-2.348 2.345l-.005 7.708-2.68-.002c-.37 0-.67.298-.67.67l-.004 6.702c0 .09.017.174.05.255.035.082.086.158.145.218l3.156 3.158-.002 3.072c0 .368.297.668.668.67h2.683l-.015 22.79c-.003 3.324-2.71 6.026-6.035 6.024l-16.758-.01c-3.1-.003-5.655-2.355-5.99-5.367l5.994.003c2.22.002 4.022-1.803 4.023-4.017l.042-63.67c0-2.214-1.798-4.02-4.017-4.022l-16.755-.01c-2.22-.003-4.02 1.802-4.023 4.017l-.04 63.675c0 2.22 1.803 4.02 4.018 4.02l6.065.005c.345 5.602 4.997 10.06 10.683 10.063l16.754.01c5.91.005 10.728-4.804 10.73-10.716l.016-22.788h2.68c.37 0 .667-.298.667-.668l.002-3.075 3.16-3.153c.06-.063.11-.136.144-.218.034-.08.05-.17.05-.255L96.935 60h.003z"/><path clip-path="url(#b)" fill="#4E58D8" d="M51.028 60.64c.554 0 1.005.453 1.005 1.007 0 .553-.452 1.004-1.006 1.003-.554 0-1.005-.452-1.005-1.005 0-.558.452-1.004 1.006-1.004m-.002 3.348c1.294 0 2.347-1.05 2.348-2.345 0-1.295-1.05-2.348-2.345-2.35-1.296 0-2.35 1.052-2.35 2.347 0 1.294 1.05 2.347 2.346 2.348M57.73 60.646c.555 0 1.006.452 1.006 1.006 0 .553-.452 1.004-1.006 1.003-.554 0-1.005-.452-1.005-1.005 0-.558.452-1.004 1.006-1.004m0 3.347c1.294 0 2.347-1.05 2.348-2.345 0-1.295-1.05-2.348-2.346-2.35-1.294 0-2.347 1.052-2.348 2.347 0 1.293 1.05 2.347 2.345 2.348"/><path clip-path="url(#b)" fill="#4E58D8" d="M54.384 53.94c4.25.002 7.706 3.462 7.703 7.713-.003 4.25-3.463 7.706-7.713 7.703s-7.706-3.463-7.703-7.712c.004-4.25 3.464-7.707 7.714-7.705m-.01 16.755c4.987.003 9.05-4.054 9.052-9.04.003-4.99-4.053-9.05-9.04-9.053-4.99-.003-9.053 4.052-9.056 9.04-.005 4.99 4.056 9.05 9.044 9.053M51.014 82.756c-.554 0-1.005-.452-1.005-1.005 0-.553.45-1.004 1.005-1.004.554 0 1.005.452 1.005 1.006s-.452 1.005-1.006 1.004m.002-3.35c-1.295 0-2.348 1.05-2.35 2.345 0 1.296 1.052 2.348 2.347 2.348 1.294 0 2.347-1.05 2.348-2.344.002-1.295-1.05-2.347-2.344-2.348M57.718 80.75c.554 0 1.005.453 1.005 1.006 0 .554-.452 1.005-1.006 1.005s-1.005-.45-1.005-1.005c0-.553.452-1.005 1.006-1.004m-.002 3.352c1.295 0 2.348-1.05 2.35-2.345 0-1.294-1.052-2.347-2.347-2.347s-2.348 1.05-2.35 2.344c0 1.295 1.052 2.347 2.346 2.348"/><path clip-path="url(#b)" fill="#4E58D8" d="M46.658 81.75c.002-4.25 3.463-7.707 7.713-7.704 4.25.004 7.707 3.464 7.704 7.714s-3.463 7.706-7.713 7.702c-4.25-.004-7.705-3.463-7.702-7.713m16.76.01c.002-4.987-4.054-9.05-9.04-9.053-4.992-.003-9.054 4.054-9.057 9.04-.002 4.99 4.054 9.054 9.045 9.057 4.986.004 9.048-4.057 9.052-9.044M51.042 40.53c.554 0 1.005.454 1.005 1.006 0 .554-.452 1.005-1.006 1.005-.553 0-1.004-.45-1.004-1.005 0-.554.452-1.005 1.006-1.005m-.002 3.353c1.294 0 2.347-1.05 2.348-2.346 0-1.294-1.05-2.347-2.345-2.348-1.295 0-2.348 1.05-2.35 2.344 0 1.295 1.052 2.348 2.347 2.35M57.745 40.534c.554 0 1.005.454 1.005 1.006 0 .554-.452 1.005-1.006 1.005s-1.005-.452-1.005-1.006.45-1.006 1.005-1.006m-.002 3.353c1.295 0 2.348-1.05 2.35-2.346 0-1.293-1.052-2.346-2.347-2.347-1.294 0-2.347 1.05-2.348 2.345-.002 1.295 1.05 2.348 2.345 2.35"/><path clip-path="url(#b)" fill="#4E58D8" d="M54.397 33.834c4.25.003 7.706 3.463 7.703 7.713-.003 4.25-3.463 7.707-7.713 7.704-4.25 0-7.706-3.462-7.703-7.713.004-4.25 3.463-7.706 7.713-7.703m-.01 16.754c4.987.003 9.05-4.053 9.052-9.04.002-4.99-4.05-9.053-9.04-9.056-4.992-.003-9.054 4.053-9.057 9.04-.005 4.99 4.056 9.053 9.044 9.056"/></svg>