<svg xmlns="http://www.w3.org/2000/svg" xmlns:xlink="http://www.w3.org/1999/xlink" width="130.852" height="130.852" viewBox="0 0 130.852 130.852"><defs><path id="a" d="M0 0h130.852v130.852H0z"/></defs><clipPath id="b"><use xlink:href="#a" overflow="visible"/></clipPath><circle clip-path="url(#b)" fill="none" stroke="#BB197A" stroke-width="2" stroke-miterlimit="10" cx="65.426" cy="65.426" r="64.426"/><path clip-path="url(#b)" fill="none" stroke="#BB197A" stroke-width="2" stroke-miterlimit="10" d="M33.496 48.86L44.033 94.48c.134.58.913.82 1.505.463l65.066-39.056c.773-.465.542-1.463-.356-1.54l-75.603-6.567c-.688-.06-1.284.497-1.15 1.076z"/><path transform="matrix(-.974 .225 -.225 -.974 88.176 134.369)" clip-path="url(#b)" fill="none" stroke="#BB197A" stroke-width="2" stroke-miterlimit="10" d="M34.035 45.66h4.79v53.1h-4.79z"/><path clip-path="url(#b)" fill="none" stroke="#BB197A" stroke-width="2" stroke-miterlimit="10" d="M82.705 51.958l4.354 18.847M77.2 51.03l5.078 21.983M22.495 57.417l8.064 3.663-5.64 6.835M28.016 82.133l8.067 3.662-5.64 6.834"/><path clip-path="url(#b)" fill="#BB197A" d="M45.89 61.308l1.66 7.195c.777 3.366 3.023 6.15 6.177 7.61l4.85 2.28 3.36-4.175c2.206-2.646 3.005-6.135 2.217-9.546l-1.66-7.195c-1.01.04-2.4.116-3.88.02-2.076-.152-3.815-.528-5.135-1.195-.94 1.188-2.293 2.278-4.09 3.324-1.3.69-2.574 1.274-3.5 1.682m12.963 18.286l-5.5-2.57c-3.437-1.634-5.874-4.618-6.725-8.308l-1.84-7.98.357-.13c.937-.362 2.35-.98 3.72-1.78 1.843-1.058 3.23-2.204 4.068-3.417l.26-.352.386.202c1.272.678 2.986 1.156 5.154 1.288 1.582.12 3.122.057 4.122-.03l.38-.037 1.84 7.98c.84 3.643-.03 7.44-2.416 10.37l-3.807 4.764z"/><path clip-path="url(#b)" fill="none" stroke="#BB197A" stroke-width=".5" stroke-miterlimit="10" d="M45.89 61.308l1.66 7.195c.777 3.366 3.023 6.15 6.177 7.61l4.85 2.28 3.36-4.175c2.206-2.646 3.005-6.135 2.217-9.546l-1.66-7.195c-1.01.04-2.4.116-3.88.02-2.076-.152-3.815-.528-5.135-1.195-.94 1.188-2.293 2.278-4.09 3.324-1.3.69-2.574 1.274-3.5 1.682zm12.963 18.286l-5.5-2.57c-3.437-1.634-5.874-4.618-6.725-8.308l-1.84-7.98.357-.13c.937-.362 2.35-.98 3.72-1.78 1.843-1.058 3.23-2.204 4.068-3.417l.26-.352.386.202c1.272.678 2.986 1.156 5.154 1.288 1.582.12 3.122.057 4.122-.03l.38-.037 1.84 7.98c.84 3.643-.03 7.44-2.416 10.37l-3.807 4.764z"/><path transform="matrix(-.974 .225 -.225 -.974 125.562 119.796)" clip-path="url(#b)" fill="#BB197A" d="M55.485 55.216h.947v23.667h-.947z"/><path transform="matrix(-.974 .225 -.225 -.974 125.56 119.799)" clip-path="url(#b)" fill="#BB197A" d="M46.965 66.576h17.987v.948H46.965z"/><path transform="matrix(-.848 -.53 .53 -.848 54.794 139.435)" clip-path="url(#b)" fill="#BB197A" d="M46.915 59.352h.945v5.018h-.945z"/><path transform="matrix(-.862 -.507 .507 -.862 61.506 140.541)" clip-path="url(#b)" fill="#BB197A" d="M49.436 55.686h.946v12.4h-.946z"/><path transform="matrix(-.848 -.53 .53 -.848 60.588 145.43)" clip-path="url(#b)" fill="#BB197A" d="M50.66 58.353h.946v11.36h-.946z"/><path transform="matrix(-.848 -.53 .53 -.848 63.099 148.305)" clip-path="url(#b)" fill="#BB197A" d="M52.363 61.404h.946v7.383h-.947z"/><path transform="matrix(-.848 -.53 .53 -.848 65.697 151.2)" clip-path="url(#b)" fill="#BB197A" d="M54.053 64.5h.945v3.362h-.945z"/><path transform="matrix(-.848 -.53 .53 -.848 70.001 155.983)" clip-path="url(#b)" fill="#BB197A" d="M56.89 66.275h.946v3.362h-.945z"/><path transform="matrix(-.848 -.53 .53 -.848 72.62 158.82)" clip-path="url(#b)" fill="#BB197A" d="M58.607 65.307h.945v7.384h-.945z"/><path transform="matrix(-.848 -.53 .53 -.848 75.203 161.692)" clip-path="url(#b)" fill="#BB197A" d="M60.31 64.384h.945v11.36h-.945z"/><path transform="matrix(-.848 -.53 .53 -.848 75.837 166.314)" clip-path="url(#b)" fill="#BB197A" d="M61.29 65.918h.945V78.65h-.945z"/></svg>