<svg xmlns="http://www.w3.org/2000/svg" xmlns:xlink="http://www.w3.org/1999/xlink" width="130.852" height="130.852" viewBox="0 0 130.852 130.852"><defs><path id="a" d="M0 0h130.852v130.852H0z"/></defs><clipPath id="b"><use xlink:href="#a" overflow="visible"/></clipPath><circle clip-path="url(#b)" fill="none" stroke="#47D6EA" stroke-width="2" stroke-miterlimit="10" cx="65.426" cy="65.426" r="64.426"/><path clip-path="url(#b)" fill="#47D6EA" d="M79.783 46.872l-15.31.02-.008-6.795 15.308-.016.01 6.792zm6.494 7.247l.217-.363c.023-.038.04-.083.062-.122 10.2.23 11.33 11.88 11.334 16.923.007 5.04-1.1 16.69-11.303 16.944-.02-.04-.034-.087-.06-.122l-.22-.36-4.1.003v-1.325h-.884l-.032-30.24h.886l-.002-1.326 4.103-.013zm-.89-1.502l-3.21.003-.003-2.92 3.21-.005c.352.873.353 2.055.002 2.923m16.042 17.933c.006 5.896-1.4 19.42-14.276 20.025.052-.533.027-1.077-.062-1.602 2.992-.176 5.52-1.296 7.484-3.266 3.106-3.112 4.822-8.32 4.815-15.16-.017-11.157-4.613-17.947-12.34-18.39.09-.527.114-1.077.06-1.612 12.877.586 14.312 14.112 14.318 20.006M82.214 91.444l-.006-2.925h3.21c.36.87.36 2.05.006 2.922l-3.21.003zm-1.496 1.327l-1.3.002-1.332-1.33-.002-2.917 1.33-1.333h1.298l.006 5.578zm-17.6 2.225l-.003-1.945c.356-.123.798-.124 1.155 0l.002 1.95-1.155-.005zm14.505 1.546v1.155l-27.698.03V96.57l27.698-.03zm2.217 3.38c0 .984-.383 1.904-1.075 2.6-.695.695-1.615 1.076-2.596 1.08l-24.774.027c-.983 0-1.906-.38-2.6-1.07-.694-.693-1.076-1.616-1.077-2.6l-.048-44.47 15.31-.016.04 36.066c-.396.08-.775.23-1.094.455l-.318.224.005 2.844h-.78l-1.498.005H58.8l-1.497.002h-.536l-1.502.002-.533.004-1.5.005h-.536l-1.497.002-2.774.003.004 4.154 30.698-.032-.004-4.154-2.995.003-1.503-.003h-.535l-1.497.002h-4.611l-1.498.004h-.717l-.003-2.845-.315-.228c-.273-.195-.597-.33-.934-.42l-.038-36.1 15.312-.015.03 30.245h-1.037l-2.204 2.21.004 4.16 2.213 2.207 1.036-.005.007 5.656zM46.777 48.41l33.892-.035.006 5.58-33.89.03-.01-5.575zm-.76-4.805c-.65-.467-1.388-.635-2.05-.667l3.216-2.82 15.78-.02.008 6.795-15.34.016c-.13-1.523-.672-2.635-1.614-3.305m.75-6.144l33.89-.032v1.155l-33.885.03-.003-1.152zm13.397-7.977l7.077-.007c5.355-.01 8.854.7 10.69 2.157 1.342 1.065 1.744 2.498 1.822 4.293l-32.086.03c.147-3.598 1.66-6.46 12.497-6.473m5.796-5.792c-.33.94-1.24 1.657-2.26 1.657-.645.004-1.247-.25-1.7-.702-.272-.27-.46-.596-.576-.95l4.535-.004zm-3.967-2.445c.455-.456 1.058-.706 1.698-.706.642-.002 1.25.246 1.703.698.27.27.456.6.575.95l-4.546.004c.113-.35.302-.676.57-.947M82.16 40.078l-.005-4.154h-.898c-.075-1.993-.514-3.976-2.394-5.466-2.143-1.702-5.837-2.49-11.623-2.48h-2.79v-1.203c.756-.15 1.45-.516 2.01-1.074.557-.558.924-1.257 1.068-2.01h.59V22.19h-.59c-.147-.76-.514-1.455-1.072-2.013-.738-.737-1.72-1.142-2.764-1.14-1.044 0-2.024.407-2.76 1.145-.558.56-.922 1.255-1.07 2.012h-.59v1.498h.59c.15.76.513 1.455 1.075 2.01.558.557 1.258.923 2.012 1.07v1.203l-2.79.003c-11.12.012-13.77 3.046-13.993 7.984l-.903-.002.004 3.834-3.537 3.098c-.163.14-.256.35-.256.566l.004.444c0 .243.118.468.315.61.197.14.45.177.68.096.016-.005 1.632-.528 2.673.213.545.39.87 1.093.978 2.084l-.845.002.008 8.578h.884l.045 44.47c.004 2.85 2.33 5.17 5.18 5.168l24.77-.026c1.427 0 2.72-.582 3.656-1.522.936-.938 1.514-2.23 1.516-3.66l-.008-5.65h.885v-1.326l4.098-.004.218-.362c.09-.152.168-.318.24-.49 4.267-.11 7.812-1.58 10.477-4.25 3.668-3.675 5.687-9.597 5.68-17.284-.013-13.273-6.064-21.272-16.203-21.513-.073-.167-.147-.33-.236-.48l-.218-.36-4.1.003v-1.325h-.885l-.007-6.794.88-.006z"/></svg>