<svg xmlns="http://www.w3.org/2000/svg" xmlns:xlink="http://www.w3.org/1999/xlink" width="130.852" height="130.852" viewBox="0 0 130.852 130.852"><defs><path id="a" d="M0 0h130.852v130.852H0z"/></defs><clipPath id="b"><use xlink:href="#a" overflow="visible"/></clipPath><circle clip-path="url(#b)" fill="none" stroke="#FF4F00" stroke-width="2" stroke-miterlimit="10" cx="65.426" cy="65.426" r="64.426"/><path clip-path="url(#b)" fill="#FF4F00" d="M90.176 90.303c-2.94.48-5.266 2.805-5.746 5.742H48.637v-62.07h41.54v56.328zm0 5.742h-3.453c.418-1.7 1.754-3.035 3.453-3.453v3.453zm-43.79 0h-5.71v-62.07h5.71v62.07zm44.915-64.32H39.55c-.62 0-1.124.504-1.124 1.125v64.32c0 .62.504 1.125 1.125 1.125H91.3c.622 0 1.126-.505 1.126-1.125V32.85c0-.62-.504-1.125-1.125-1.125"/><path clip-path="url(#b)" fill="#FF4F00" d="M55.23 42.95H83.78v14.52H55.23V42.95zm-1.124 16.77h30.797c.62 0 1.125-.503 1.125-1.124v-16.77c0-.62-.504-1.125-1.125-1.125H54.106c-.62 0-1.125.505-1.125 1.126v16.77c0 .62.505 1.125 1.126 1.125"/></svg>