<svg xmlns="http://www.w3.org/2000/svg" xmlns:xlink="http://www.w3.org/1999/xlink" width="702.991" height="76.209" viewBox="0 0 702.991 76.209"><defs><path id="a" d="M0 0h702.99v76.21H0z"/></defs><clipPath id="b"><use xlink:href="#a" overflow="visible"/></clipPath><path clip-path="url(#b)" fill="#E94036" d="M73.582 76.21h-23.65c-.88 0-1.7-.44-2.187-1.173l-9.64-14.456-9.637 14.457c-.49.73-1.31 1.172-2.187 1.172H2.63C1.175 76.21 0 75.03 0 73.58v-47.3c0-.88.44-1.702 1.17-2.19L36.646.44c.885-.587 2.034-.587 2.917 0L75.04 24.09c.73.488 1.17 1.31 1.17 2.19v47.3c0 1.452-1.177 2.63-2.628 2.63m-22.245-5.257h19.617V27.685l-32.85-21.9-32.848 21.9v43.27h19.617l10.074-15.11-10.854-16.282c-.537-.81-.59-1.845-.13-2.7s1.346-1.388 2.317-1.388h23.65c.97 0 1.86.533 2.318 1.388s.407 1.89-.13 2.7l-10.854 16.28 10.073 15.11zm-20.15-30.22l6.918 10.372 6.915-10.373H31.188z"/><path clip-path="url(#b)" fill="#3C4544" d="M117.928.155H102.75V2.84h6.132v10.557h2.914V2.84h6.132M131.492 8.08h9.578v5.317h2.913V.155h-2.913v5.24h-9.578V.154h-2.912v13.242h2.912M158.474 8.024h10.447v-2.59h-10.446V2.746h11.298V.155H155.58v13.242h14.29v-2.593h-11.396"/><path clip-path="url(#b)" fill="#E94036" d="M257.095 34.384V76.21h41.824v-8.037h-33.982V59.07h33.98v-7.84h-33.98v-9.003h33.98v-7.843"/><path clip-path="url(#b)" fill="#F5BE65" d="M319.6 34.384V76.21h41.824v-8.037H327.44V59.07h33.984v-7.84H327.44v-9.003h33.984v-7.843"/><path clip-path="url(#b)" fill="#8AC0C1" d="M216.52 64.978l-11.472-30.594h-8.423L185.15 64.978l-11.47-30.594h-8.423L180.94 76.21h8.423l11.472-30.594 11.473 30.594h8.422l15.685-41.826h-8.423"/><path clip-path="url(#b)" fill="#E94036" d="M616.38 34.384l-11.474 30.594-11.47-30.594h-8.425L569.328 76.21h8.423l11.473-30.596 11.472 30.595h8.423l11.473-30.594 11.472 30.593h8.425l-15.685-41.826"/><path clip-path="url(#b)" fill="#F5BE65" d="M702.99 42.227v-7.842h-41.823V76.21h41.824v-8.037h-33.98V59.07h33.98v-7.84h-33.98v-9.003"/><path clip-path="url(#b)" fill="#3C4544" d="M478.373 51.23h-26.14V34.383h-7.915V76.21h7.914V59.07h26.14v17.14h7.772V34.384h-7.77"/><path clip-path="url(#b)" fill="#888" d="M382.104 34.384v7.843h16.846V76.21h7.84V42.226h16.847v-7.843"/><path clip-path="url(#b)" fill="#8AC0C1" d="M512.05 34.384l-5.227 5.23V70.98l5.228 5.23h31.37l5.227-5.23V39.612l-5.228-5.23h-31.37zm28.755 33.982h-26.14v-26.14h26.14v26.14z"/><path clip-path="url(#b)" fill="#3C4544" d="M110.594 51.23v-9.003h28.753v-7.843H107.98l-5.23 5.228v14.233l5.23 5.226h28.753v9.296H102.75v7.844h36.597l5.228-5.23V56.46l-5.228-5.23"/></svg>